<?xml version="1.0" encoding="utf-8"?>
<!-- Generator: Adobe Illustrator 23.1.0, SVG Export Plug-In . SVG Version: 6.00 Build 0)  -->
<svg version="1.1" id="Layer_1" xmlns="http://www.w3.org/2000/svg" xmlns:xlink="http://www.w3.org/1999/xlink" x="0px" y="0px"
	 viewBox="0 0 55.4 61.9" style="enable-background:new 0 0 55.4 61.9;" xml:space="preserve">
<style type="text/css">
	.st0{fill:#E05A42;}
	.st1{fill:#60BB46;}
	.st2{fill:#4A82C3;}
	.st3{enable-background:new    ;}
	.st4{fill:#FFFFFF;}
</style>
<title>Artboard 2</title>
<path class="st0" d="M33.6,49.7l-0.2,0.2c-0.6,0.6-1.2,1.2-1.8,1.8c-8.7-5-17.3-11.4-22-20.3c-2-3.7-2.9-7.8-2.6-12
	c0.5-4.3,2.8-8.2,6.4-10.7c1.2-0.8,2.6-1.5,4-1.9c2.2-0.6,4.4-0.8,6.6-0.4c0.4,0.1,0.7,0.1,1.1,0.2c0.2,0,0.5,0.1,0.7,0.2
	c0.5,0.3,1.5,0.6,1.9,1.1c1.1,0.7,1.4,2.1,0.7,3.2c-0.2,0.5-1.9,1.2-2.3,1.7c-1,1.4-2.8,2.4-2.7,4.2c2.9-2.5,6.4-4,10.2-4.4
	c3.8-0.3,8.9,0.1,11.5,2.7c3.4,3.3,3.3,9.2,2.5,13.8s-3.3,8.8-6.3,12.4C39,44.5,36.3,47.1,33.6,49.7z"/>
<path class="st1" d="M30,10.6L28,12c-0.3-0.9,0.6-1.9,0.2-2.8c-0.3-0.6-0.9-0.9-1.6-0.9C21.5,7.2,15.6,8.4,12,12.4
	c-1.9,2.3-3.2,5.1-3.6,8.1C7.9,24,8.3,27.6,9.7,30.9c1.9,4.3,5.5,7.6,9.2,10.6c5.3,4.3,11,8.1,16.9,11.5c1.1,0.5,2.1,1.3,2.8,2.3
	c0.8,1.4,0.5,3.1,0.2,4.7c0,0.3-0.1,0.5-0.4,0.7c-0.3,0.1-0.6,0-0.9-0.1c-7.4-4-14.3-8.8-20.7-14.2C11.6,42,6.6,37,3.7,30.7
	c-1.7-3.5-2.5-7.4-2.4-11.3c0-1.9,0.4-3.9,1-5.7C3,12.1,3.9,10.5,5,9.2c2.5-3.2,6.1-5.5,10.1-6.3c4.8-0.9,9.7,0.2,13.6,3.1
	c0.4,0.3,1,0.7,1.5,0.4c0.2-0.1,0.3-0.3,0.4-0.6c0.4-1.3,1-2.5,1.7-3.6c0.9-1,2.5-1.6,3.6-0.9c0.4,0.3,0.7,0.7,0.7,1.2
	c0,0.8-0.8,1.3-1.5,1.7c-1.7,1-3.5,2.8-3,4.8L30,10.6z"/>
<path class="st2" d="M22.4,17.8c0.1-0.1,0.1-0.4,0.3-0.9c0.2-0.4,0.5-0.8,0.8-1.2c0.5-0.7,1.1-1.5,1.7-2.1c0.5-0.5,1-0.9,1.5-1.4
	c2.1-1.6,4.3-3,6.7-4c2.5-1.3,5.2-1.8,8-1.6c2.7,0.5,5.1,1.8,7,3.7c6,5.9,7.8,15,4.4,22.8c-2.1,4.6-5.9,8.2-9.5,11.7L25.6,61.7
	c-1.3-2.1-0.8-5,0.7-7c1.5-2,3.4-3.7,5.5-5c4.6-3.3,8.9-7.2,12-11.9s4.8-10.6,3.8-16.2c-0.5-2.8-1.8-5.7-4.3-7.1
	c-1.7-0.9-3.5-1.3-5.4-1.2C32.4,13.1,26.6,14.2,22.4,17.8z"/>
<g class="st3">
	<path class="st4" d="M17.9,19.2c1.1,0,1.8,0.3,2.3,0.8c0.5,0.5,0.7,1.3,0.7,2.3v1c0,0.5-0.1,0.9-0.2,1.3c-0.1,0.4-0.3,0.7-0.5,1
		c-0.2,0.3-0.6,0.5-1,0.6c-0.4,0.1-0.9,0.2-1.4,0.2h-2.5v-7.1H17.9z M16.7,25.2h1.1c0.3,0,0.6,0,0.8-0.1c0.2-0.1,0.5-0.2,0.6-0.3
		c0.2-0.2,0.3-0.4,0.4-0.6c0.1-0.3,0.1-0.6,0.1-1v-0.9c0-0.7-0.2-1.3-0.5-1.6c-0.3-0.3-0.8-0.5-1.5-0.5h-1.1V25.2z"/>
	<path class="st4" d="M23.9,26.4c-0.6,0-1-0.1-1.4-0.4c-0.3-0.3-0.5-0.6-0.5-1.1v-0.3c0-0.2,0-0.4,0.1-0.6s0.2-0.3,0.3-0.5
		c0.2-0.1,0.4-0.2,0.6-0.3c0.3-0.1,0.6-0.1,1-0.1h1.2v-0.2c0-0.3-0.1-0.6-0.2-0.7s-0.4-0.2-0.7-0.2c-0.6,0-1.1,0.2-1.5,0.5l-0.6-0.9
		c0.3-0.2,0.6-0.4,0.9-0.5c0.3-0.1,0.8-0.2,1.2-0.2c0.3,0,0.6,0,0.9,0.1s0.5,0.2,0.7,0.3c0.2,0.1,0.3,0.3,0.5,0.5
		c0.1,0.2,0.2,0.5,0.2,0.7v3.8h-1.1l0-0.7c-0.1,0.1-0.1,0.2-0.3,0.3c-0.1,0.1-0.2,0.2-0.4,0.2s-0.3,0.1-0.5,0.1
		C24.2,26.3,24,26.4,23.9,26.4z M25.3,23.9h-1.2c-0.3,0-0.6,0.1-0.7,0.2c-0.1,0.1-0.2,0.3-0.2,0.5v0.1c0,0.2,0.1,0.3,0.2,0.4
		s0.3,0.1,0.6,0.1c0.5,0,0.9-0.1,1.1-0.4c0.1-0.1,0.2-0.2,0.2-0.4s0-0.3,0-0.5V23.9z"/>
	<path class="st4" d="M32.4,25.8c-0.3,0.2-0.6,0.3-0.9,0.4c-0.4,0.1-0.8,0.2-1.3,0.2c-0.3,0-0.6,0-0.9-0.1c-0.3-0.1-0.6-0.2-0.8-0.4
		c-0.2-0.2-0.4-0.5-0.6-0.8c-0.1-0.3-0.2-0.7-0.2-1.2v-0.6c0-0.4,0.1-0.8,0.2-1.1c0.1-0.3,0.3-0.6,0.5-0.8s0.5-0.4,0.8-0.5
		s0.6-0.1,1-0.1c0.3,0,0.7,0,1,0.1c0.3,0.1,0.5,0.2,0.8,0.4c0.2,0.2,0.4,0.5,0.5,0.7c0.1,0.3,0.2,0.6,0.2,1V24h-3.6
		c0,0.4,0.1,0.8,0.3,1c0.2,0.2,0.6,0.3,1,0.3c0.3,0,0.6,0,0.9-0.1c0.2-0.1,0.5-0.2,0.8-0.3L32.4,25.8z M31.3,23.1v-0.2
		c0-0.1,0-0.3-0.1-0.4c0-0.1-0.1-0.2-0.2-0.3s-0.2-0.2-0.4-0.2c-0.2-0.1-0.3-0.1-0.6-0.1c-0.4,0-0.7,0.1-0.9,0.3
		c-0.2,0.2-0.3,0.5-0.3,0.8v0.2H31.3z"/>
	<path class="st4" d="M37,25.5L37,25.5c-0.2,0.3-0.4,0.4-0.6,0.6c-0.3,0.1-0.6,0.2-0.9,0.2c-0.7,0-1.2-0.2-1.6-0.6
		c-0.3-0.4-0.5-1-0.5-1.7v-0.9c0-0.4,0.1-0.7,0.2-1c0.1-0.3,0.2-0.5,0.4-0.7c0.2-0.2,0.4-0.4,0.7-0.5c0.3-0.1,0.6-0.2,0.9-0.2
		c0.2,0,0.4,0,0.6,0.1c0.2,0,0.3,0.1,0.4,0.1c0.1,0.1,0.2,0.1,0.3,0.2s0.1,0.1,0.2,0.2h0v-0.5h1.2v5.4c0,0.8-0.2,1.3-0.6,1.7
		c-0.4,0.4-1.1,0.6-2,0.6c-0.3,0-0.7-0.1-1-0.2c-0.3-0.1-0.6-0.3-0.8-0.4l0.6-1c0.1,0,0.1,0.1,0.2,0.2s0.2,0.1,0.3,0.2
		s0.2,0.1,0.4,0.1c0.1,0,0.3,0,0.4,0c0.4,0,0.8-0.1,1-0.3c0.2-0.2,0.3-0.5,0.3-0.9V25.5z M34.6,23.8c0,0.5,0.1,0.8,0.3,1.1
		s0.5,0.4,0.8,0.4c0.2,0,0.4,0,0.5-0.1s0.3-0.2,0.4-0.3c0.1-0.1,0.2-0.3,0.3-0.4c0.1-0.2,0.1-0.3,0.1-0.5v-1c0-0.1,0-0.3-0.1-0.4
		c0-0.1-0.1-0.2-0.2-0.3c-0.1-0.1-0.2-0.2-0.4-0.3c-0.2-0.1-0.3-0.1-0.6-0.1c-0.4,0-0.7,0.1-0.9,0.4c-0.2,0.3-0.3,0.6-0.3,1.1V23.8z
		"/>
	<path class="st4" d="M41.6,26.4c-0.6,0-1-0.2-1.4-0.5c-0.3-0.3-0.5-0.8-0.5-1.5v-3.5h1.2v3.2c0,0.2,0,0.4,0.1,0.6
		c0.1,0.2,0.1,0.3,0.2,0.4c0.1,0.1,0.2,0.2,0.3,0.2s0.3,0.1,0.4,0.1c0.1,0,0.3,0,0.4-0.1c0.1,0,0.3-0.1,0.4-0.2
		c0.1-0.1,0.2-0.2,0.3-0.4c0.1-0.2,0.1-0.4,0.1-0.6v-3.2h1.2v5.4h-1.2v-0.7h0c-0.1,0.1-0.2,0.2-0.3,0.3c-0.1,0.1-0.2,0.2-0.4,0.2
		c-0.1,0.1-0.3,0.1-0.4,0.1S41.7,26.4,41.6,26.4z"/>
</g>
<g class="st3">
	<path class="st4" d="M24.7,31v1.1h-2.1v6h-1.3v-6h-2.1V31H24.7z"/>
</g>
<g class="st3">
	<path class="st4" d="M27.2,38.2c-0.4,0-0.7-0.1-1.1-0.2c-0.3-0.1-0.6-0.3-0.8-0.5c-0.2-0.2-0.4-0.5-0.5-0.8
		c-0.1-0.3-0.2-0.7-0.2-1.1V35c0-0.4,0.1-0.8,0.2-1.1c0.1-0.3,0.3-0.6,0.5-0.8c0.2-0.2,0.5-0.4,0.8-0.5c0.3-0.1,0.7-0.2,1.1-0.2
		c0.4,0,0.7,0.1,1,0.2c0.3,0.1,0.6,0.3,0.8,0.5c0.2,0.2,0.4,0.5,0.5,0.8c0.1,0.3,0.2,0.7,0.2,1.1v0.6c0,0.4-0.1,0.7-0.2,1.1
		c-0.1,0.3-0.3,0.6-0.5,0.8c-0.2,0.2-0.5,0.4-0.8,0.5C27.9,38.1,27.5,38.2,27.2,38.2z M27.2,37.1c0.2,0,0.4,0,0.5-0.1
		s0.3-0.1,0.4-0.2c0.1-0.1,0.2-0.3,0.3-0.4c0.1-0.2,0.1-0.4,0.1-0.7v-0.6c0-0.5-0.1-0.9-0.4-1.1s-0.5-0.3-0.9-0.3
		c-0.4,0-0.7,0.1-0.9,0.3s-0.4,0.6-0.4,1.1v0.6c0,0.3,0,0.5,0.1,0.7c0.1,0.2,0.2,0.3,0.3,0.4c0.1,0.1,0.3,0.2,0.4,0.2
		S27,37.1,27.2,37.1z"/>
	<path class="st4" d="M32.7,38.2c-0.6,0-1-0.2-1.4-0.5c-0.3-0.3-0.5-0.8-0.5-1.5v-3.5h1.2v3.2c0,0.2,0,0.4,0.1,0.6s0.1,0.3,0.2,0.4
		c0.1,0.1,0.2,0.2,0.3,0.2s0.3,0.1,0.4,0.1c0.1,0,0.3,0,0.4-0.1c0.1,0,0.3-0.1,0.4-0.2c0.1-0.1,0.2-0.2,0.3-0.4
		c0.1-0.2,0.1-0.4,0.1-0.6v-3.2h1.2v5.4h-1.2v-0.7h0c-0.1,0.1-0.2,0.2-0.3,0.3c-0.1,0.1-0.2,0.2-0.4,0.2c-0.1,0.1-0.3,0.1-0.4,0.1
		S32.9,38.2,32.7,38.2z"/>
	<path class="st4" d="M40.1,33.8c-0.1,0-0.2-0.1-0.3-0.1c-0.1,0-0.2,0-0.4,0c-0.2,0-0.3,0-0.5,0.1c-0.1,0.1-0.3,0.1-0.4,0.3
		s-0.2,0.2-0.3,0.4c-0.1,0.1-0.1,0.3-0.1,0.5v3.2H37v-5.4h1.2v0.8h0c0.1-0.3,0.3-0.5,0.6-0.7c0.2-0.2,0.6-0.2,0.9-0.2
		c0.1,0,0.3,0,0.4,0c0.1,0,0.3,0,0.4,0.1L40.1,33.8z"/>
</g>
</svg>
