<?xml version="1.0" encoding="utf-8"?>
<!-- Generator: Adobe Illustrator 23.1.0, SVG Export Plug-In . SVG Version: 6.00 Build 0)  -->
<svg version="1.1" id="Layer_1" xmlns="http://www.w3.org/2000/svg" xmlns:xlink="http://www.w3.org/1999/xlink" x="0px" y="0px"
	 viewBox="0 0 220.5 60.7" style="enable-background:new 0 0 220.5 60.7;" xml:space="preserve">
<style type="text/css">
	.st0{fill:#E05A42;}
	.st1{fill:#60BB46;}
	.st2{fill:#4A82C3;}
	.st3{fill:#FFFFFF;}
	.st4{font-family:'NanumSquareEB';}
	.st5{font-size:9.86px;}
	.st6{enable-background:new    ;}
	.st7{fill:#1A1A1A;}
</style>
<title>Artboard 1</title>
<path class="st0" d="M32.4,48.7l-0.2,0.2c-0.6,0.6-1.2,1.2-1.8,1.8c-8.7-5-17.3-11.4-22-20.3c-2-3.7-2.9-7.8-2.6-12
	c0.5-4.3,2.8-8.2,6.4-10.7c1.2-0.8,2.6-1.5,4-1.9c1.4-0.4,2.9-0.6,4.4-0.6c0.8,0,1.5,0.1,2.3,0.2c0.4,0.1,0.7,0.1,1.1,0.2
	c0.2,0,0.5,0.1,0.7,0.2c0.5,0.3,1.5,0.6,1.9,1.1c1.1,0.7,1.3,2.1,0.7,3.2c-0.2,0.5-1.9,1.2-2.3,1.7c-1,1.4-2.8,2.4-2.7,4.2
	c2.9-2.5,6.4-4,10.2-4.4c3.8-0.3,8.8,0.1,11.5,2.7c3.4,3.3,3.3,9.2,2.5,13.8s-3.3,8.8-6.3,12.4C37.8,43.5,35.1,46.1,32.4,48.7z"/>
<path class="st1" d="M28.8,9.6L26.9,11c-0.3-0.9,0.6-1.9,0.2-2.8c-0.4-0.5-0.9-0.9-1.6-0.9c-5.2-1.1-11.1,0.2-14.6,4.1
	c-1.9,2.3-3.2,5.1-3.6,8.1C6.7,23,7.2,26.6,8.6,29.9c1.9,4.3,5.5,7.6,9.2,10.6c5.3,4.3,11,8.1,16.9,11.5c1.1,0.5,2.1,1.3,2.8,2.3
	c0.8,1.4,0.5,3.1,0.2,4.7c0,0.3-0.2,0.5-0.4,0.7c-0.3,0.2-0.6,0-0.9-0.1c-7.4-4-14.3-8.8-20.7-14.2C10.4,41,5.5,35.9,2.6,29.7
	c-1.7-3.5-2.5-7.4-2.4-11.3c0.1-1.9,0.4-3.9,1-5.7c0.6-1.7,1.5-3.2,2.7-4.5C6.4,4.9,10,2.7,14,1.9c4.8-0.9,9.7,0.2,13.5,3.1
	c0.5,0.3,1.1,0.7,1.5,0.4c0.2-0.1,0.3-0.3,0.4-0.6c0.4-1.3,1-2.5,1.7-3.6c0.9-1,2.5-1.6,3.6-0.9c0.4,0.3,0.7,0.7,0.7,1.2
	c0,0.8-0.8,1.3-1.5,1.7c-1.7,1-3.5,2.8-3,4.8L28.8,9.6z"/>
<path class="st2" d="M21.2,16.8c0.1-0.1,0.1-0.5,0.3-0.8c0.2-0.4,0.5-0.8,0.8-1.2c0.5-0.7,1.1-1.4,1.7-2.1c0.5-0.5,1-0.9,1.5-1.4
	c2.1-1.6,4.3-3,6.7-4c2.5-1.3,5.2-1.8,8-1.6c2.7,0.5,5.1,1.8,7,3.7c6,5.9,7.8,15,4.4,22.7c-2.1,4.7-5.9,8.3-9.6,11.8L24.5,60.7
	c-1.3-2.1-0.8-5,0.6-7c1.6-2,3.4-3.7,5.5-5c4.6-3.4,8.9-7.2,12-11.9s4.8-10.6,3.8-16.2c-0.5-2.8-1.8-5.7-4.3-7.1
	c-1.7-0.9-3.5-1.3-5.4-1.3C31.3,12.1,25.5,13.2,21.2,16.8z"/>
<text transform="matrix(1 0 0 1 13.52 25.01)" class="st3 st4 st5">Daegu</text>
<text transform="matrix(1 0 0 1 17.99 36.84)" class="st3 st4 st5">T</text>
<text transform="matrix(1 0 0 1 23.02 36.84)" class="st3 st4 st5">our</text>
<g class="st6">
	<path class="st7" d="M68.9,25.2c1.4,0,2.8-0.1,4.2-0.2s2.9-0.2,4.4-0.4v3.2c-0.8,0.1-1.7,0.2-2.7,0.3s-1.9,0.2-2.9,0.2
		s-1.9,0.1-2.8,0.1c-0.9,0-1.8,0-2.6,0c-0.5,0-0.9-0.2-1.2-0.5c-0.3-0.3-0.5-0.7-0.5-1.2V11c0-0.5,0.2-0.9,0.5-1.2s0.7-0.5,1.2-0.5
		h9.4v3.1h-6.9c-0.2,0-0.3,0.1-0.3,0.3v12.2C68.7,25.1,68.8,25.2,68.9,25.2z M84.5,34.7V20h-2.3v13.5c0,0.1-0.1,0.3-0.2,0.4
		C82,34,81.9,34,81.7,34h-3.3V8h3.9v8.7h2.3V8h3.9v26.1c0,0.1-0.1,0.3-0.2,0.4c-0.1,0.1-0.2,0.2-0.4,0.2H84.5z"/>
	<path class="st7" d="M90.3,20.7h17.2c0.1-0.4,0.2-0.8,0.3-1.3c0.1-0.4,0.2-0.9,0.2-1.4c0.1-0.5,0.1-0.9,0.1-1.3
		c0-0.4,0.1-0.8,0.1-1.1V12c0-0.2-0.1-0.3-0.3-0.3H93.4V8.5h16.9c0.5,0,0.9,0.2,1.2,0.5s0.5,0.7,0.5,1.2V15c0,0.3,0,0.7-0.1,1.2
		c0,0.5-0.1,1-0.2,1.5s-0.1,1-0.2,1.6c-0.1,0.5-0.2,1-0.3,1.4h4.4v2.6c0,0.1-0.1,0.3-0.2,0.4c-0.1,0.1-0.2,0.2-0.4,0.2h-10.5v10.3
		c0,0.1-0.1,0.3-0.2,0.4c-0.1,0.1-0.2,0.2-0.4,0.2h-3.2V23.9H90.3V20.7z"/>
	<path class="st7" d="M116.3,31.1v-3.2h25.3v2.6c0,0.4-0.2,0.6-0.6,0.6H116.3z M121.1,24.1c-0.5,0-0.9-0.2-1.2-0.5
		c-0.3-0.3-0.5-0.7-0.5-1.2V11.1c0-0.5,0.2-0.9,0.5-1.2c0.3-0.3,0.7-0.5,1.2-0.5h17.2v3.2h-14.7c-0.2,0-0.3,0.1-0.3,0.3v2.2h14.5
		v3.1h-14.5v2.4c0,0.2,0.1,0.3,0.3,0.3h14.9v3.2H121.1z"/>
	<path class="st7" d="M147.3,19.2c0,0.2,0.1,0.3,0.3,0.3c2.1,0,4.1,0,6.1-0.2c2-0.1,4-0.4,5.9-0.6v3c-0.8,0.1-1.7,0.2-2.8,0.3
		c-1.1,0.1-2.3,0.2-3.6,0.3c-1.3,0.1-2.6,0.1-3.9,0.2c-1.3,0-2.6,0.1-3.9,0.1c-0.5,0-0.9-0.2-1.2-0.5c-0.3-0.3-0.5-0.7-0.5-1.2v-7
		h8.9c0.2,0,0.3-0.1,0.3-0.3v-1.9h-9.2V8.8h12.9v6.3c0,0.5-0.2,0.9-0.5,1.2c-0.3,0.3-0.7,0.5-1.2,0.5h-7.5V19.2z M146.9,23.7h3.8
		v2.7h10.2v-2.7h3.8v9.5c0,0.5-0.2,0.9-0.5,1.2c-0.3,0.3-0.7,0.5-1.2,0.5h-14.3c-0.5,0-0.9-0.2-1.2-0.5c-0.3-0.3-0.5-0.7-0.5-1.2
		V23.7z M150.6,29.4v2.1c0,0.2,0.1,0.3,0.3,0.3h9.7c0.2,0,0.3-0.1,0.3-0.3v-2.1H150.6z M161,22.8V8h3.7v14.2c0,0.1-0.1,0.3-0.2,0.4
		c-0.1,0.1-0.2,0.2-0.4,0.2H161z"/>
	<path class="st7" d="M168.4,28.3h10.7v-3.8h-5.9c-0.5,0-0.9-0.2-1.2-0.5c-0.3-0.3-0.5-0.7-0.5-1.2v-7.7h14.6c0.2,0,0.3-0.1,0.3-0.3
		v-2.4h-14.8V9.2h18.8v7.5c0,0.5-0.2,1-0.5,1.2c-0.3,0.3-0.7,0.4-1.2,0.4h-13.1V21c0,0.2,0.1,0.3,0.3,0.3h15v3.3H183v3.8h10.6v2.6
		c0,0.1-0.1,0.3-0.2,0.4c-0.1,0.1-0.2,0.2-0.4,0.2h-24.7V28.3z"/>
	<path class="st7" d="M219.7,27.9v2.6c0,0.1-0.1,0.3-0.2,0.4s-0.2,0.2-0.4,0.2h-24.7v-3.2H219.7z M216.7,19.9v3.2h-17.6
		c-0.4,0-0.8-0.2-1.2-0.5c-0.4-0.3-0.5-0.7-0.5-1.2V11c0-0.5,0.2-0.9,0.5-1.2c0.3-0.3,0.7-0.5,1.2-0.5h17.3v3.2h-15
		c-0.2,0-0.3,0.1-0.3,0.3v6.8c0,0.2,0.1,0.3,0.3,0.3H216.7z"/>
</g>
<g class="st6">
	<path class="st7" d="M64.6,40.4h3.1c0.8,0,1.4,0.2,1.7,0.6c0.4,0.4,0.6,1,0.6,1.9v2.5c0,0.5,0,0.9-0.1,1.2
		c-0.1,0.3-0.2,0.6-0.4,0.9s-0.5,0.4-0.8,0.5c-0.3,0.1-0.7,0.2-1.2,0.2h-2.4c-0.1,0-0.2,0-0.2-0.1c-0.1-0.1-0.1-0.2-0.1-0.3V40.4z
		 M67.4,47.7c0.4,0,0.8-0.1,1.1-0.2c0.3-0.1,0.5-0.3,0.7-0.5s0.3-0.5,0.3-0.7s0.1-0.6,0.1-1v-2.5c0-0.7-0.1-1.2-0.4-1.5
		c-0.3-0.3-0.7-0.5-1.4-0.5h-2.6v6.8c0,0.1,0,0.1,0.1,0.1H67.4z"/>
	<path class="st7" d="M78.3,48.1C78.4,48.1,78.3,48.2,78.3,48.1l-0.4,0.1l-1.1-2.4h-4.3l-1,2.3c0,0.1-0.1,0.1-0.1,0.1h-0.4l3.3-7.8
		H75L78.3,48.1z M72.6,45.3h4l-2-4.6c0,0-0.1,0-0.1,0L72.6,45.3z"/>
	<path class="st7" d="M84.1,44.1c0,0.1-0.1,0.2-0.2,0.2h-4v3.4c0,0.1,0,0.1,0.1,0.1h4.5v0.2c0,0.1,0,0.1,0,0.1c0,0-0.1,0.1-0.1,0.1
		h-4.6c-0.1,0-0.2,0-0.2-0.1c-0.1-0.1-0.1-0.1-0.1-0.3v-7.4h5.1v0.4h-4.6v3.1h4.2V44.1z"/>
	<path class="st7" d="M90.9,44c0.2,0,0.3,0,0.4,0.1c0.1,0.1,0.2,0.2,0.2,0.4v1.9c0,0.3,0,0.5-0.1,0.7c-0.1,0.2-0.2,0.4-0.4,0.5
		S90.6,48,90.4,48c-0.2,0.1-0.4,0.1-0.6,0.1h-1.3c-0.9,0-1.5-0.2-2-0.7s-0.7-1.2-0.7-2v-2.5c0-0.4,0.1-0.7,0.2-1s0.3-0.6,0.5-0.8
		c0.2-0.2,0.5-0.4,0.8-0.5c0.3-0.1,0.7-0.2,1-0.2c0.5,0,1,0,1.5,0s1,0.1,1.5,0.1v0.4c-0.5-0.1-1-0.1-1.5-0.1s-1,0-1.5,0
		c-0.3,0-0.6,0.1-0.9,0.2s-0.5,0.3-0.6,0.4c-0.2,0.2-0.3,0.4-0.4,0.7c-0.1,0.3-0.1,0.5-0.1,0.8v2.6c0,0.4,0.1,0.8,0.2,1.1
		c0.1,0.3,0.3,0.5,0.5,0.7c0.2,0.2,0.4,0.3,0.7,0.4c0.3,0.1,0.6,0.1,0.9,0.1h1.2c0.4,0,0.7-0.1,0.9-0.3s0.4-0.5,0.4-0.9v-2
		c0-0.1,0-0.1-0.1-0.1h-2.2V44H90.9z"/>
	<path class="st7" d="M95.8,47.8c0.7,0,1.3-0.2,1.7-0.6s0.6-1.1,0.6-2v-4.8h0.5v5c0,0.4-0.1,0.8-0.2,1.2c-0.1,0.4-0.3,0.7-0.6,0.9
		c-0.2,0.2-0.5,0.4-0.9,0.6s-0.7,0.2-1.2,0.2c-0.4,0-0.8-0.1-1.2-0.2c-0.3-0.1-0.6-0.3-0.9-0.6c-0.2-0.2-0.4-0.5-0.6-0.9
		C93,46.2,93,45.8,93,45.4v-5h0.5v4.8c0,0.5,0.1,0.9,0.2,1.2c0.1,0.3,0.3,0.6,0.5,0.8c0.2,0.2,0.4,0.4,0.7,0.5
		C95.1,47.7,95.4,47.8,95.8,47.8z"/>
	<path class="st7" d="M105.5,48c0,0.1-0.1,0.2-0.2,0.2H105v-7.3h-2.7v-0.4h5.9v0.4h-2.7V48z"/>
	<path class="st7" d="M109.2,43.3c0-0.4,0.1-0.8,0.2-1.2s0.3-0.7,0.6-1c0.3-0.3,0.6-0.5,0.9-0.6c0.4-0.1,0.8-0.2,1.3-0.2
		c0.5,0,0.9,0.1,1.3,0.2c0.4,0.1,0.7,0.3,0.9,0.6c0.2,0.3,0.4,0.6,0.5,1c0.1,0.4,0.2,0.8,0.2,1.3v2c0,0.4-0.1,0.8-0.2,1.2
		c-0.1,0.4-0.3,0.7-0.6,0.9c-0.2,0.3-0.6,0.5-0.9,0.6c-0.4,0.1-0.8,0.2-1.3,0.2c-0.5,0-0.9-0.1-1.2-0.2c-0.4-0.1-0.7-0.3-0.9-0.6
		c-0.3-0.3-0.5-0.6-0.6-0.9c-0.1-0.3-0.2-0.7-0.2-1.1V43.3z M114.6,43.4c0-0.8-0.2-1.5-0.6-2c-0.4-0.5-1-0.7-1.8-0.7
		c-0.4,0-0.7,0.1-1,0.2c-0.3,0.1-0.6,0.3-0.8,0.5c-0.2,0.2-0.4,0.5-0.5,0.8c-0.1,0.3-0.2,0.7-0.2,1v2.2c0,0.4,0.1,0.7,0.2,1
		c0.1,0.3,0.3,0.5,0.5,0.8c0.2,0.2,0.5,0.4,0.8,0.5c0.3,0.1,0.6,0.2,1,0.2c0.8,0,1.4-0.2,1.8-0.7s0.6-1,0.6-1.8V43.4z"/>
	<path class="st7" d="M119.5,47.8c0.7,0,1.3-0.2,1.7-0.6s0.6-1.1,0.6-2v-4.8h0.5v5c0,0.4-0.1,0.8-0.2,1.2c-0.1,0.4-0.3,0.7-0.6,0.9
		c-0.2,0.2-0.5,0.4-0.9,0.6s-0.7,0.2-1.2,0.2c-0.4,0-0.8-0.1-1.2-0.2s-0.6-0.3-0.9-0.6c-0.2-0.2-0.4-0.5-0.6-0.9
		c-0.1-0.4-0.2-0.8-0.2-1.2v-5h0.5v4.8c0,0.5,0.1,0.9,0.2,1.2s0.3,0.6,0.5,0.8c0.2,0.2,0.4,0.4,0.7,0.5
		C118.8,47.7,119.1,47.8,119.5,47.8z"/>
	<path class="st7" d="M129.7,48.1C129.8,48.1,129.7,48.1,129.7,48.1l-0.4,0.1l-2-3.3h-2.8v3.1c0,0.1,0,0.1,0,0.1s-0.1,0.1-0.1,0.1
		H124v-7.8h3.5c0.4,0,0.7,0,0.9,0.1c0.2,0.1,0.4,0.2,0.6,0.3c0.2,0.1,0.3,0.3,0.3,0.5c0.1,0.2,0.1,0.4,0.1,0.7v1
		c0,0.3-0.1,0.6-0.2,0.8s-0.2,0.4-0.4,0.5c-0.2,0.1-0.3,0.2-0.5,0.3c-0.2,0.1-0.4,0.1-0.6,0.1L129.7,48.1z M124.5,44.4h2.8
		c0.6,0,1-0.1,1.3-0.3c0.3-0.2,0.4-0.6,0.4-1l0-0.9c0-0.4-0.1-0.8-0.3-1s-0.6-0.3-1.2-0.3h-2.9c-0.1,0-0.1,0-0.1,0.1V44.4z"/>
	<path class="st7" d="M131.7,48c0,0.1-0.1,0.2-0.2,0.2h-0.3v-7.8h0.5V48z"/>
	<path class="st7" d="M136.7,48.1c-0.6,0-1.1,0-1.6,0c-0.5,0-1.1-0.1-1.6-0.1v-0.5c0.6,0.1,1.1,0.1,1.7,0.2s1.2,0,1.7,0
		c0.3,0,0.5-0.1,0.7-0.2s0.4-0.2,0.5-0.3c0.1-0.1,0.2-0.3,0.3-0.5s0.1-0.4,0.1-0.5c0-0.2-0.1-0.4-0.2-0.6s-0.2-0.3-0.4-0.4
		s-0.4-0.2-0.6-0.3c-0.2-0.1-0.5-0.2-0.8-0.3l-1.4-0.5c-0.2-0.1-0.4-0.2-0.7-0.2c-0.2-0.1-0.4-0.2-0.6-0.3c-0.2-0.1-0.3-0.3-0.5-0.5
		c-0.1-0.2-0.2-0.4-0.2-0.8c0-0.3,0.1-0.6,0.2-0.8c0.1-0.2,0.2-0.4,0.4-0.6c0.2-0.2,0.4-0.3,0.7-0.4c0.3-0.1,0.5-0.1,0.8-0.2
		c0.5,0,1,0,1.5,0s1.1,0.1,1.7,0.1v0.4c-0.5-0.1-1-0.1-1.5-0.1c-0.5,0-1,0-1.5,0c-0.6,0-1.1,0.2-1.3,0.4c-0.3,0.3-0.4,0.6-0.4,1
		c0,0.2,0,0.4,0.1,0.6s0.2,0.3,0.3,0.4s0.3,0.2,0.5,0.3c0.2,0.1,0.4,0.1,0.6,0.2l1.7,0.6c0.3,0.1,0.6,0.2,0.8,0.3
		c0.2,0.1,0.4,0.2,0.6,0.4c0.2,0.1,0.3,0.3,0.4,0.5c0.1,0.2,0.2,0.4,0.2,0.7c0,0.6-0.2,1.1-0.5,1.5C138,47.9,137.4,48.1,136.7,48.1z
		"/>
	<path class="st7" d="M142.8,48c0,0.1-0.1,0.2-0.2,0.2h-0.3v-7.3h-2.7v-0.4h5.9v0.4h-2.7V48z"/>
	<path class="st7" d="M150,48c0,0.1-0.1,0.2-0.2,0.2h-0.3v-7.8h0.5V48z"/>
	<path class="st7" d="M152.6,41C152.6,41,152.6,41,152.6,41C152.5,41,152.5,41,152.6,41l-0.1,7c0,0.1,0,0.1-0.1,0.1H152v-7.8h0.7
		l4.5,7c0,0,0,0,0.1,0c0,0,0,0,0-0.1v-7h0.5V48c0,0.1,0,0.1-0.1,0.1h-0.6L152.6,41z"/>
	<path class="st7" d="M164.5,44.1c0,0.1,0,0.1-0.1,0.1c0,0-0.1,0.1-0.1,0.1h-4.2V48c0,0.1,0,0.2-0.1,0.2h-0.3v-7.8h5.1v0.4h-4.6v3.1
		h4.4V44.1z"/>
	<path class="st7" d="M165.8,43.3c0-0.4,0.1-0.8,0.2-1.2s0.3-0.7,0.6-1s0.6-0.5,1-0.6c0.4-0.1,0.8-0.2,1.3-0.2
		c0.5,0,0.9,0.1,1.3,0.2c0.4,0.1,0.7,0.3,0.9,0.6c0.2,0.3,0.4,0.6,0.6,1c0.1,0.4,0.2,0.8,0.2,1.3v2c0,0.4-0.1,0.8-0.2,1.2
		c-0.1,0.4-0.3,0.7-0.6,0.9c-0.2,0.3-0.6,0.5-0.9,0.6c-0.4,0.1-0.8,0.2-1.3,0.2c-0.5,0-0.9-0.1-1.2-0.2s-0.7-0.3-0.9-0.6
		s-0.5-0.6-0.6-0.9c-0.1-0.3-0.2-0.7-0.2-1.1V43.3z M171.3,43.4c0-0.8-0.2-1.5-0.6-2c-0.4-0.5-1-0.7-1.8-0.7c-0.4,0-0.7,0.1-1,0.2
		c-0.3,0.1-0.6,0.3-0.8,0.5s-0.4,0.5-0.5,0.8c-0.1,0.3-0.2,0.7-0.2,1v2.2c0,0.4,0.1,0.7,0.2,1c0.1,0.3,0.3,0.5,0.5,0.8
		s0.5,0.4,0.8,0.5c0.3,0.1,0.6,0.2,1,0.2c0.8,0,1.4-0.2,1.8-0.7s0.6-1,0.6-1.8V43.4z"/>
	<path class="st7" d="M179.1,48.1C179.1,48.1,179.1,48.1,179.1,48.1l-0.4,0.1l-2-3.3h-2.8v3.1c0,0.1,0,0.1,0,0.1
		c0,0-0.1,0.1-0.1,0.1h-0.3v-7.8h3.5c0.4,0,0.7,0,0.9,0.1c0.2,0.1,0.4,0.2,0.6,0.3c0.2,0.1,0.3,0.3,0.3,0.5c0.1,0.2,0.1,0.4,0.1,0.7
		v1c0,0.3,0,0.6-0.2,0.8c-0.1,0.2-0.2,0.4-0.4,0.5c-0.2,0.1-0.3,0.2-0.5,0.3c-0.2,0.1-0.4,0.1-0.6,0.1L179.1,48.1z M173.9,44.4h2.8
		c0.6,0,1-0.1,1.3-0.3c0.3-0.2,0.4-0.6,0.4-1l0-0.9c0-0.4-0.1-0.8-0.3-1s-0.6-0.3-1.2-0.3H174c-0.1,0-0.1,0-0.1,0.1V44.4z"/>
	<path class="st7" d="M187.1,41.3C187.1,41.3,187.1,41.3,187.1,41.3C187.1,41.3,187,41.3,187.1,41.3l-2.7,6.6c0,0.1-0.1,0.1-0.1,0.1
		s-0.1,0-0.2,0h-0.5l-2.8-6.8c0,0,0,0-0.1,0c0,0,0,0,0,0l0,6.8h-0.5v-7.7h0.7l2.9,7.1c0,0,0,0.1,0.1,0.1c0,0,0.1,0,0.1-0.1l2.8-7.1
		h0.8v7.7h-0.5V41.3z"/>
	<path class="st7" d="M196.1,48.1C196.1,48.1,196.1,48.2,196.1,48.1l-0.4,0.1l-1.1-2.4h-4.3l-1,2.3c0,0.1-0.1,0.1-0.1,0.1h-0.4
		l3.3-7.8h0.8L196.1,48.1z M190.4,45.3h4l-2-4.6c0,0-0.1,0-0.1,0L190.4,45.3z"/>
	<path class="st7" d="M199.8,48c0,0.1-0.1,0.2-0.2,0.2h-0.3v-7.3h-2.7v-0.4h5.9v0.4h-2.7V48z"/>
	<path class="st7" d="M204.4,48c0,0.1-0.1,0.2-0.2,0.2h-0.3v-7.8h0.5V48z"/>
	<path class="st7" d="M206.3,43.3c0-0.4,0.1-0.8,0.2-1.2s0.3-0.7,0.6-1c0.3-0.3,0.6-0.5,0.9-0.6s0.8-0.2,1.3-0.2
		c0.5,0,0.9,0.1,1.3,0.2c0.4,0.1,0.7,0.3,0.9,0.6c0.2,0.3,0.4,0.6,0.5,1c0.1,0.4,0.2,0.8,0.2,1.3v2c0,0.4-0.1,0.8-0.2,1.2
		c-0.1,0.4-0.3,0.7-0.6,0.9c-0.2,0.3-0.6,0.5-0.9,0.6c-0.4,0.1-0.8,0.2-1.3,0.2c-0.5,0-0.9-0.1-1.2-0.2s-0.7-0.3-0.9-0.6
		c-0.3-0.3-0.5-0.6-0.6-0.9c-0.1-0.3-0.2-0.7-0.2-1.1V43.3z M211.7,43.4c0-0.8-0.2-1.5-0.6-2c-0.4-0.5-1-0.7-1.8-0.7
		c-0.4,0-0.7,0.1-1,0.2c-0.3,0.1-0.6,0.3-0.8,0.5c-0.2,0.2-0.4,0.5-0.5,0.8s-0.2,0.7-0.2,1v2.2c0,0.4,0.1,0.7,0.2,1
		c0.1,0.3,0.3,0.5,0.5,0.8c0.2,0.2,0.5,0.4,0.8,0.5c0.3,0.1,0.6,0.2,1,0.2c0.8,0,1.4-0.2,1.8-0.7s0.6-1,0.6-1.8V43.4z"/>
	<path class="st7" d="M214.4,41C214.4,41,214.4,41,214.4,41C214.3,41,214.3,41,214.4,41l-0.1,7c0,0.1,0,0.1-0.1,0.1h-0.4v-7.8h0.7
		l4.5,7c0,0,0,0,0.1,0c0,0,0,0,0-0.1v-7h0.5V48c0,0.1,0,0.1-0.1,0.1h-0.6L214.4,41z"/>
</g>
</svg>
