<svg id="Layer_1" data-name="Layer 1" xmlns="http://www.w3.org/2000/svg" viewBox="0 0 222.05 62.1"><defs><style>.cls-1,.cls-2{fill:#fff;}.cls-2{font-size:9.86px;font-family:NanumSquareEB, NanumSquare;}.cls-3{letter-spacing:-0.06em;}</style></defs><title>Artboard 3</title><path class="cls-1" d="M30,10.77,28,12.22c-.29-.92.58-2,.19-2.83a2.08,2.08,0,0,0-1.6-1C21.43,7.36,15.53,8.6,12,12.56a15.7,15.7,0,0,0-3.58,8.11A19,19,0,0,0,9.68,31.13c1.9,4.33,5.51,7.64,9.18,10.61A127.83,127.83,0,0,0,35.75,53.28a6.89,6.89,0,0,1,2.78,2.3c.78,1.38.49,3.1.17,4.66-.05.26-.12.56-.36.68a.94.94,0,0,1-.86-.14A121.79,121.79,0,0,1,16.8,46.6C11.57,42.16,6.63,37.15,3.72,30.94A25,25,0,0,1,1.31,19.62a19.37,19.37,0,0,1,1-5.69A15.91,15.91,0,0,1,5,9.39,17.15,17.15,0,0,1,15.08,3.07a17.06,17.06,0,0,1,13.6,3.16c.45.34,1.05.72,1.52.4a1.3,1.3,0,0,0,.38-.57,13.79,13.79,0,0,1,1.73-3.63c.86-1,2.46-1.63,3.57-.88a1.47,1.47,0,0,1,.68,1.22c0,.78-.83,1.28-1.5,1.68-1.74,1-3.46,2.82-3,4.8Z"/><path class="cls-1" d="M22.34,18c.07-.06.11-.44.31-.85A7.08,7.08,0,0,1,23.41,16a25.52,25.52,0,0,1,1.65-2.08,18.05,18.05,0,0,1,1.55-1.35,31.15,31.15,0,0,1,6.73-4A14.87,14.87,0,0,1,41.29,7a13,13,0,0,1,7.05,3.7,20.51,20.51,0,0,1,4.4,22.75c-2.11,4.61-5.87,8.22-9.54,11.72L25.6,61.93c-1.32-2.11-.76-5,.65-7a22.25,22.25,0,0,1,5.53-5c4.59-3.35,8.94-7.17,12-11.94s4.81-10.61,3.81-16.2c-.5-2.82-1.83-5.68-4.3-7.14a11,11,0,0,0-5.42-1.24C32.38,13.32,26.61,14.38,22.34,18Z"/><text class="cls-2" transform="translate(14.65 26.22)">Daegu<tspan class="cls-3" x="4.47" y="11.83">T</tspan><tspan x="9.5" y="11.83">our</tspan></text><path class="cls-1" d="M70.06,26.37c1.4,0,2.8-.08,4.19-.19s2.86-.24,4.41-.43v3.16c-.84.1-1.74.19-2.69.27s-1.91.15-2.87.21-1.91.09-2.84.11-1.8,0-2.61,0A1.72,1.72,0,0,1,66.44,29,1.59,1.59,0,0,1,66,27.79V12.2A1.61,1.61,0,0,1,66.44,11a1.68,1.68,0,0,1,1.21-.47H77v3.11h-7a.25.25,0,0,0-.28.28V26.09A.25.25,0,0,0,70.06,26.37Zm15.6,9.54V21.19H83.39V34.68a.54.54,0,0,1-.17.39.5.5,0,0,1-.39.17H79.5v-26h3.89v8.65h2.27V9.26h3.86V35.35a.54.54,0,0,1-.17.4.53.53,0,0,1-.39.16Z"/><path class="cls-1" d="M91.43,21.89h17.22c.11-.4.21-.82.29-1.26s.15-.9.21-1.36.1-.9.14-1.33.06-.81.06-1.15V13.18a.25.25,0,0,0-.28-.28H94.48V9.73h16.94a1.71,1.71,0,0,1,1.71,1.68v4.85c0,.33,0,.74-.06,1.22s-.09,1-.15,1.49-.15,1.05-.24,1.56a10,10,0,0,1-.34,1.36h4.37v2.63a.5.5,0,0,1-.17.39.54.54,0,0,1-.39.17H105.68V35.41a.58.58,0,0,1-.56.56H101.9V25.08H91.43Z"/><path class="cls-1" d="M117.47,32.27V29.08h25.28v2.63a.49.49,0,0,1-.56.56Zm4.79-7a1.63,1.63,0,0,1-1.22-.49,1.59,1.59,0,0,1-.49-1.19V12.31a1.57,1.57,0,0,1,.5-1.22,1.73,1.73,0,0,1,1.21-.46h17.16v3.16H124.75a.25.25,0,0,0-.28.28v2.24H139v3.08H124.47V21.8a.24.24,0,0,0,.28.28h14.89V25.3Z"/><path class="cls-1" d="M148.41,20.4a.24.24,0,0,0,.28.28q3.1,0,6.13-.19t5.88-.62v3c-.77.11-1.7.22-2.8.32s-2.29.19-3.57.26-2.59.14-3.94.19-2.64.07-3.89.07a1.63,1.63,0,0,1-1.24-.49,1.69,1.69,0,0,1-.47-1.19v-7h8.88c.19,0,.28-.1.28-.3V12.87h-9.16V10h12.86v6.3a1.64,1.64,0,0,1-.49,1.2,1.69,1.69,0,0,1-1.22.48h-7.53ZM148,24.91h3.75v2.72H162V24.91h3.75v9.46a1.58,1.58,0,0,1-.49,1.22,1.7,1.7,0,0,1-1.22.46H149.69a1.68,1.68,0,0,1-1.21-.47,1.61,1.61,0,0,1-.49-1.21Zm3.75,5.71v2.1A.24.24,0,0,0,152,33h9.66a.25.25,0,0,0,.28-.28v-2.1ZM162.1,24V9.26h3.72V23.45a.54.54,0,0,1-.17.4.53.53,0,0,1-.39.16Z"/><path class="cls-1" d="M169.52,29.5h10.72V25.75h-5.88a1.69,1.69,0,0,1-1.71-1.68v-7.7h14.56a.24.24,0,0,0,.28-.28V13.71H172.65V10.43h18.82v7.48a1.61,1.61,0,0,1-.48,1.25,1.72,1.72,0,0,1-1.23.43H176.63v2.6a.24.24,0,0,0,.28.28h15v3.28h-7.73V29.5H194.8v2.58a.5.5,0,0,1-.17.39.54.54,0,0,1-.39.17H169.52Z"/><path class="cls-1" d="M220.87,29.11v2.63a.54.54,0,0,1-.17.39.5.5,0,0,1-.39.17H195.59V29.11Zm-3-7.95v3.22H200.26a1.69,1.69,0,0,1-1.17-.48,1.54,1.54,0,0,1-.54-1.2V12.25a1.64,1.64,0,0,1,.49-1.2,1.69,1.69,0,0,1,1.22-.48h17.31v3.22h-15a.25.25,0,0,0-.28.28v6.81a.25.25,0,0,0,.28.28Z"/><path class="cls-1" d="M66.07,49.38a.34.34,0,0,1-.27-.12.36.36,0,0,1-.11-.28V41.57H69a2.29,2.29,0,0,1,.94.17,1.83,1.83,0,0,1,1.1,1.2,2.73,2.73,0,0,1,.14.92v2.87a2.87,2.87,0,0,1-.63,2,2.42,2.42,0,0,1-1.87.66Zm4.33-5.56A1.7,1.7,0,0,0,70,42.67a1.55,1.55,0,0,0-1.15-.44H66.48v6.39c0,.06,0,.1.11.1h2.25A1.49,1.49,0,0,0,70,48.18a2.35,2.35,0,0,0,.39-1.32Z"/><path class="cls-1" d="M78.76,49.38l-1-2.29h-4l-.91,2.21c0,.05-.07.08-.11.08H72l3.09-7.82h1.17l3.23,7.72c0,.07,0,.1-.06.1ZM74,46.44h3.55l-1.78-4.32s-.06,0-.09,0Z"/><path class="cls-1" d="M80.92,49.38a.38.38,0,0,1-.28-.12.39.39,0,0,1-.11-.28V41.56h5.19v.65h-4.4V45h4v.45c0,.13-.06.19-.16.19H81.32v3c0,.06,0,.1.12.1h4.28v.46a.24.24,0,0,1,0,.14.18.18,0,0,1-.11.05Z"/><path class="cls-1" d="M92.65,47.69a2,2,0,0,1-.14.78,1.58,1.58,0,0,1-.39.52,1.56,1.56,0,0,1-.57.3,2.39,2.39,0,0,1-.66.09H89.47a2.92,2.92,0,0,1-1.1-.2,2.37,2.37,0,0,1-.81-.57,2.57,2.57,0,0,1-.5-.89,3.43,3.43,0,0,1-.18-1.15v-2.4a2.79,2.79,0,0,1,.2-1.09,2.22,2.22,0,0,1,.54-.79,2.39,2.39,0,0,1,.83-.5,3.5,3.5,0,0,1,1.06-.22,13.65,13.65,0,0,1,1.43,0c.47,0,1,.05,1.47.11v.66A14.65,14.65,0,0,0,91,42.19a12,12,0,0,0-1.47,0,1.81,1.81,0,0,0-1.81,2v2.3a3.83,3.83,0,0,0,.07.73A1.86,1.86,0,0,0,88,48a1.54,1.54,0,0,0,.57.53,2,2,0,0,0,1,.21h1.31c.69,0,1-.33,1-1V45.91c0-.06,0-.1-.12-.1h-2v-.63h2.26a.64.64,0,0,1,.42.14.52.52,0,0,1,.17.41Z"/><path class="cls-1" d="M96.91,48.8a2,2,0,0,0,1.54-.58A2.7,2.7,0,0,0,99,46.35V41.57h.79v5a3.68,3.68,0,0,1-.18,1.17,2.49,2.49,0,0,1-.54.94,2.42,2.42,0,0,1-.9.62,3.24,3.24,0,0,1-1.25.23,3.39,3.39,0,0,1-1.24-.21,2.41,2.41,0,0,1-.91-.6,2.51,2.51,0,0,1-.55-.94A3.84,3.84,0,0,1,94,46.54v-5h.78v4.78a2.69,2.69,0,0,0,.55,1.87A2.05,2.05,0,0,0,96.91,48.8Z"/><path class="cls-1" d="M106,49.38V42.23h-2.62v-.67h6v.67h-2.6v7a.16.16,0,0,1-.18.18Z"/><path class="cls-1" d="M113.35,49.49a3.58,3.58,0,0,1-1.32-.23,2.72,2.72,0,0,1-1-.61,2.57,2.57,0,0,1-.59-.89,3,3,0,0,1-.2-1.08V44.41a3.26,3.26,0,0,1,.2-1.12,2.73,2.73,0,0,1,.58-.95,3,3,0,0,1,1-.66,3.43,3.43,0,0,1,1.33-.24,3.52,3.52,0,0,1,1.27.21,2.49,2.49,0,0,1,.93.6,2.44,2.44,0,0,1,.56.93,3.69,3.69,0,0,1,.19,1.23v2.26a3.09,3.09,0,0,1-.22,1.22,2.5,2.5,0,0,1-1.56,1.42A3.68,3.68,0,0,1,113.35,49.49Zm0-7.34a2.59,2.59,0,0,0-1,.16,1.91,1.91,0,0,0-.72.45,2,2,0,0,0-.47.7,2.76,2.76,0,0,0-.16.94v2.23a2.22,2.22,0,0,0,.18.94,1.91,1.91,0,0,0,.48.66,2,2,0,0,0,.73.38,3.28,3.28,0,0,0,.91.13,2.83,2.83,0,0,0,.9-.14,1.86,1.86,0,0,0,.68-.4,1.91,1.91,0,0,0,.44-.66,2.52,2.52,0,0,0,.15-.91V44.4a2.29,2.29,0,0,0-.56-1.65A2.09,2.09,0,0,0,113.36,42.15Z"/><path class="cls-1" d="M120.61,48.8a2,2,0,0,0,1.54-.58,2.7,2.7,0,0,0,.54-1.87V41.57h.79v5a3.68,3.68,0,0,1-.18,1.17,2.49,2.49,0,0,1-.54.94,2.42,2.42,0,0,1-.9.62,3.24,3.24,0,0,1-1.25.23,3.39,3.39,0,0,1-1.24-.21,2.4,2.4,0,0,1-1.46-1.54,3.84,3.84,0,0,1-.18-1.21v-5h.78v4.78a2.7,2.7,0,0,0,.54,1.87A2.05,2.05,0,0,0,120.61,48.8Z"/><path class="cls-1" d="M131,49.29a0,0,0,0,1,0,.06s0,0-.05,0h-.72l-1.73-3.29h-2.58v3.09a.32.32,0,0,1,0,.14.16.16,0,0,1-.14.06h-.61V41.57h3.51a3.48,3.48,0,0,1,.81.08,1.77,1.77,0,0,1,.63.25,1.25,1.25,0,0,1,.42.49,1.76,1.76,0,0,1,.15.77v1.23a1.77,1.77,0,0,1-.15.7,1.46,1.46,0,0,1-.79.78,2.57,2.57,0,0,1-.5.15Zm-2.24-3.85a1.47,1.47,0,0,0,.81-.22,1,1,0,0,0,.38-.73V43.12a.78.78,0,0,0-.3-.67,1.21,1.21,0,0,0-.76-.23h-3v3.22Z"/><path class="cls-1" d="M132.17,41.54H133v7.65c0,.11,0,.17-.15.17h-.66Z"/><path class="cls-1" d="M137.88,49.37c-.54,0-1.11,0-1.7,0s-1.12,0-1.61-.1v-.68l1.65.12c.55,0,1.11,0,1.68,0a3.7,3.7,0,0,0,.58-.1,1.51,1.51,0,0,0,.47-.25,1.19,1.19,0,0,0,.31-.39,1.22,1.22,0,0,0,.1-.56,1.1,1.1,0,0,0-.14-.55,1.5,1.5,0,0,0-.36-.4,2.29,2.29,0,0,0-.54-.29c-.2-.09-.42-.17-.65-.25l-1.37-.43a6.61,6.61,0,0,1-.74-.28,3.06,3.06,0,0,1-.64-.37,2.08,2.08,0,0,1-.45-.53,1.42,1.42,0,0,1-.18-.74,1.73,1.73,0,0,1,.14-.84,1.67,1.67,0,0,1,.45-.6,2.09,2.09,0,0,1,.67-.38,3.06,3.06,0,0,1,.82-.16c.53,0,1.07,0,1.61,0s1.09.05,1.65.1v.67c-.51-.05-1-.08-1.52-.11a11.88,11.88,0,0,0-1.57,0,2,2,0,0,0-1.08.36,1.18,1.18,0,0,0-.37,1,.77.77,0,0,0,.14.44,1.25,1.25,0,0,0,.34.35,2.63,2.63,0,0,0,.47.27l.51.2,1.65.56a5,5,0,0,1,.77.32,2.48,2.48,0,0,1,.61.4,1.85,1.85,0,0,1,.4.53,1.73,1.73,0,0,1,.14.71,2.36,2.36,0,0,1-.17.94,1.67,1.67,0,0,1-.49.62,1.87,1.87,0,0,1-.71.34A3.44,3.44,0,0,1,137.88,49.37Z"/><path class="cls-1" d="M143.29,49.38V42.23h-2.62v-.67h6v.67h-2.6v7a.16.16,0,0,1-.18.18Z"/><path class="cls-1" d="M150.5,41.54h.8v7.65c0,.11-.05.17-.15.17h-.65Z"/><path class="cls-1" d="M153.94,49.27a.1.1,0,0,1-.1.11h-.68V41.56h1.06l4,6.92V41.56H159v7.7c0,.08,0,.12-.13.12H158L154,42.69a.05.05,0,0,0-.05,0s0,0,0,.06Z"/><path class="cls-1" d="M165.66,45.43a.21.21,0,0,1,0,.13.24.24,0,0,1-.13,0h-4v3.57q0,.18-.15.18h-.63V41.57h5.13v.66h-4.35V45h4.15Z"/><path class="cls-1" d="M170,49.49a3.67,3.67,0,0,1-1.33-.23,2.77,2.77,0,0,1-1-.61,2.43,2.43,0,0,1-.59-.89,3,3,0,0,1-.2-1.08V44.41a3.26,3.26,0,0,1,.2-1.12,2.73,2.73,0,0,1,.58-.95,3,3,0,0,1,1-.66,3.48,3.48,0,0,1,1.34-.24,3.56,3.56,0,0,1,1.27.21,2.49,2.49,0,0,1,.93.6,2.57,2.57,0,0,1,.56.93,3.69,3.69,0,0,1,.19,1.23v2.26a3.09,3.09,0,0,1-.22,1.22,2.54,2.54,0,0,1-.63.88,2.57,2.57,0,0,1-.94.54A3.66,3.66,0,0,1,170,49.49Zm0-7.34a2.59,2.59,0,0,0-1,.16,2,2,0,0,0-.73.45,2,2,0,0,0-.46.7,2.54,2.54,0,0,0-.16.94v2.23a2.22,2.22,0,0,0,.18.94,1.68,1.68,0,0,0,.48.66,1.91,1.91,0,0,0,.72.38,3.35,3.35,0,0,0,.92.13,2.83,2.83,0,0,0,.9-.14,1.86,1.86,0,0,0,.68-.4,1.91,1.91,0,0,0,.44-.66,2.52,2.52,0,0,0,.15-.91V44.4a2.29,2.29,0,0,0-.56-1.65A2.09,2.09,0,0,0,170,42.15Z"/><path class="cls-1" d="M180.34,49.29a0,0,0,0,1,0,.06s0,0,0,0h-.72l-1.73-3.29h-2.58v3.09a.32.32,0,0,1,0,.14.16.16,0,0,1-.14.06h-.61V41.57H178a3.48,3.48,0,0,1,.81.08,1.77,1.77,0,0,1,.63.25,1.25,1.25,0,0,1,.42.49,1.76,1.76,0,0,1,.15.77v1.23a1.77,1.77,0,0,1-.15.7,1.46,1.46,0,0,1-.79.78,2.57,2.57,0,0,1-.5.15Zm-2.24-3.85a1.47,1.47,0,0,0,.81-.22,1,1,0,0,0,.38-.73V43.12a.78.78,0,0,0-.3-.67,1.21,1.21,0,0,0-.76-.23h-3v3.22Z"/><path class="cls-1" d="M188,43.17s0-.06,0-.06,0,0-.06,0l-2.25,6.07a.24.24,0,0,1-.25.18h-.75l-2.4-6.26s0,0,0,0,0,0,0,0v6.06c0,.11,0,.16-.14.16h-.63V41.57h1.06l2.59,6.76a.07.07,0,0,0,.07.06s0,0,.07-.06l2.46-6.76h1.13v7.65c0,.11,0,.16-.14.16H188Z"/><path class="cls-1" d="M196.58,49.38l-1-2.29h-4l-.92,2.21a.14.14,0,0,1-.1.08h-.72l3.09-7.82h1.17l3.24,7.72c0,.07,0,.1-.06.1Zm-4.8-2.94h3.56l-1.79-4.32s-.06,0-.08,0Z"/><path class="cls-1" d="M200.32,49.38V42.23h-2.63v-.67h6v.67H201.1v7c0,.12,0,.18-.17.18Z"/><path class="cls-1" d="M204.89,41.54h.81v7.65c0,.11,0,.17-.15.17h-.66Z"/><path class="cls-1" d="M210.45,49.49a3.67,3.67,0,0,1-1.33-.23,2.77,2.77,0,0,1-1-.61,2.43,2.43,0,0,1-.59-.89,2.77,2.77,0,0,1-.2-1.08V44.41a3.25,3.25,0,0,1,.19-1.12,2.76,2.76,0,0,1,.59-.95,3,3,0,0,1,1-.66,3.48,3.48,0,0,1,1.34-.24,3.56,3.56,0,0,1,1.27.21,2.45,2.45,0,0,1,.92.6,2.59,2.59,0,0,1,.57.93,3.69,3.69,0,0,1,.19,1.23v2.26a3.09,3.09,0,0,1-.23,1.22,2.39,2.39,0,0,1-.62.88,2.57,2.57,0,0,1-.94.54A3.66,3.66,0,0,1,210.45,49.49Zm0-7.34a2.59,2.59,0,0,0-1,.16,1.88,1.88,0,0,0-.73.45,2,2,0,0,0-.46.7,2.54,2.54,0,0,0-.16.94v2.23a2.39,2.39,0,0,0,.17.94,1.81,1.81,0,0,0,.49.66,1.91,1.91,0,0,0,.72.38,3.35,3.35,0,0,0,.92.13,2.72,2.72,0,0,0,.89-.14,1.82,1.82,0,0,0,.69-.4,1.89,1.89,0,0,0,.43-.66,2.31,2.31,0,0,0,.16-.91V44.4a2.34,2.34,0,0,0-.56-1.65A2.09,2.09,0,0,0,210.46,42.15Z"/><path class="cls-1" d="M215.71,49.27a.1.1,0,0,1-.1.11h-.68V41.56H216l4,6.92V41.56h.78v7.7a.11.11,0,0,1-.12.12h-.93l-3.94-6.69-.06,0s0,0,0,.06Z"/></svg>