<?xml version="1.0" encoding="utf-8"?>
<!-- Generator: Adobe Illustrator 23.1.0, SVG Export Plug-In . SVG Version: 6.00 Build 0)  -->
<svg version="1.1" id="Layer_1" xmlns="http://www.w3.org/2000/svg" xmlns:xlink="http://www.w3.org/1999/xlink" x="0px" y="0px"
	 viewBox="0 0 601.2 725.4" style="enable-background:new 0 0 601.2 725.4;" xml:space="preserve">
<style type="text/css">
	.st0{fill:#FF9D74;stroke:#FF9D74;stroke-width:2;stroke-miterlimit:10;}
	.st1{fill:#FFFFFF;stroke:#C2C2C2;stroke-width:2;stroke-miterlimit:10;}
</style>
<title>Artboard 2</title>
<polygon class="st0" points="324.2,242.1 326.7,253.3 326.7,266.9 318.7,271.7 325.3,277 336.1,282.2 358.3,282.2 372,284.3 
	372,269.3 380.8,258.2 372,248.4 343.8,253.3 "/>
<polygon class="st0" points="336.1,282.2 325.3,277 323.2,289.6 318.7,299 304.7,314 308.5,332.8 324.1,351.6 343.4,364.6 
	367.8,342.9 367.8,299.3 372,284.3 358.3,282.2 "/>
<path class="st1" d="M240.2,223l6.3,4.7l24.8,0.2l9.1-10.9l7.3,5.2l9.1-0.7l12.9,7.7l14,3.8l0.7,9.1l19.5,11.2l28.2-4.9l7.7-23
	l18.1,3.1l2.1-5.9l-2.6-11.3l-5.5-2.7V201l6.3-8.4l-1.7-13.9l9.4-12.7L393,144.5l1.2-11.6l-4-4.1l0.6-41.3l-11.4-14.9l-9.4-5.9
	l-11.6-15.9l-12.7,14.9L334,70.6L304.7,73l-17.9,14.4c0,0-0.5,7.7-2.6,7.9c-6.5,0.7-13.4-22.7-13.4-22.7s-13.7-6.4-17.3-3.8
	c-6.6,4.7-3.7,32.3-3.7,32.3l7.6,9.9l1.1,13.2l4,7.5l1.8,18.1l-9.5,15.6h-6.3l-7.2,10.2l-17.2,11.2l1.2,10.2l-3.3,4l1.6,16.3
	l-6.3,10.2L229,223H240.2z"/>
<polygon class="st1" points="326.7,253.3 324.2,242.1 323.5,233.1 309.6,229.2 296.7,221.6 287.6,222.2 280.3,217 271.2,227.8 
	246.5,227.6 237.8,233.4 236,242.1 242.3,249.8 244,266.9 260.1,269 268.1,286.1 297.4,284.3 318.7,271.7 318.1,271.3 318.7,271.7 
	326.7,266.9 "/>
<polygon class="st1" points="218.9,358 234.6,368.7 237.8,379.5 242.6,388.3 261.5,400.8 265.6,408.1 282.4,407.4 283.4,413.7 
	289.4,421 289.4,431.9 299.9,434.3 305.8,425.9 326.3,424.5 326.7,411.3 323.2,398.7 323.5,388.3 332.6,377.8 340.5,378.9 
	343.4,364.6 324.1,351.6 308.5,332.8 304.7,314 318.7,299 323.2,289.6 325.3,277 318.7,271.7 297.4,284.3 268.1,286.1 260.1,269 
	244,266.9 229,274.6 202.5,274.2 196.9,270.4 183,273.4 176,278.4 174.4,326.4 181.7,333.4 185.7,342.5 186.6,349.7 181.2,357.8 
	193.4,354.1 "/>
<polygon class="st1" points="583.5,244.8 585.6,239.9 595.1,227.8 593.5,209 580.6,203.7 579.8,196.9 585.4,187.4 587.7,179.9 
	577.7,173.2 570.3,174.4 566.3,167.4 557.5,150.4 562.3,137.4 563.5,115.7 551.7,109.2 555.6,101.3 564.2,92.5 564.2,80.2 
	546.1,56.5 544.9,34.1 534.9,26.9 483.1,4.8 474.9,8.3 467.7,8.1 463.1,6 456.8,6 452.4,8.3 445.9,6 429.1,15.5 421.4,15.8 
	416.1,11.1 403.8,11.1 369.6,30.4 364,44.1 358.3,50.8 369.9,66.7 379.4,72.6 390.8,87.5 390.2,128.8 394.1,132.8 393,144.5 
	405.9,165.9 396.4,178.6 398.2,192.6 391.9,201 391.9,208.6 397.4,211.3 399.9,222.6 397.8,228.5 379.7,225.4 372,248.4 
	380.8,258.2 407.1,262 420.5,244.6 442.8,243.9 448.6,252.3 464.5,249.8 476,261.7 477,274.9 488.2,279.1 492.4,284.3 506,283.4 
	514,272.1 528.3,271.1 538.9,281.1 548.4,287.6 566.8,285.9 575.4,280.1 577.5,274.8 579.8,267.6 587.7,259.7 587,250.6 "/>
<path class="st1" d="M183,273.4l13.9-3l5.6,3.8l26.5,0.4l15-7.7l-1.7-17.1l-6.3-7.6l1.9-8.7l8.6-5.8l-6.3-4.6H229l-11.5,4.4
	L202.9,217l-12.8-0.9l-12.1-4.4l-6.1-12.8l1.2-9.3c0,0,9.6-5,11.4-7.9c1.2-1.9,1.4-8.8,1.4-8.8l-4.2-9.5l6.3-9.8l-1.6-8.6l-13.5-7.7
	l-14.6,3l-5.8-5.1l-5.8,1.7l-5.8,4.6l-6.6-1.8l-4.1,3l-5.6,10.5l-17.2,6l-3,9.8l-9.2,2.9L90,189l-10.5,7.9l1.8,13.4l-3.4,2.9
	l1.6,18.3L58.9,251l-7.4,15.8L48,285l3.3,5.1v6.7l8.8,1.2l5.3,4.2l30.2-2.1l14-1.2l45.6,13.5l14.6,9.6l4.6,4.4l1.6-48L183,273.4z"/>
<path class="st0" d="M512,272.7l-7.9,11.2l-13.4,1l-4.2-5.1l-11.1-4.2l-1-13.1l-11.4-11.8l-15.7,2.4l-5.7-8.3l-22,0.7l-13.2,17.3
	l-26.1-3.8l-8.7,11v14.8l-4.2,14.8v43.1L343.3,364l28.3,9.7l33.8-3.8l15.8,10.7l18.6-3.1l24.8,7.9l17.7,12.2
	c1.3-2.9,3.5-5.2,6.2-6.8c2.7-1.5,12-2.6,12-2.6l7.1-6.2l0.7-6.2l17.5-16.1l-0.7-15.4l-6.6-7.8l-1.6-6.9l-1-7.8l9.2-5.5l6.7,0.2
	l7.1-9.4l-0.5-8.3l-7.6-7.3l-1.2-7.1l6.9-2.8l-10.5-9.9L512,272.7z"/>
<path class="st0" d="M336.1,495.7l-9.5-1.6l-11.2,4.7l-8.1-3.1c0,0,16.4-10.3,4.4-28.3s-11.8-33.1-11.8-33.1l5.8-8.4l20.6-1.4
	l0.4-13.3l-3.5-12.5l0.3-10.5l9.1-10.5l7.9,1.1l2.9-14.3l28.6,9.8l34.2-3.8l16,10.8l18.8-3.1l25.1,8l17.8,12.3
	c-3.3,7-2.3,15.6-2.3,15.6l16.5,21.9l0.5,15.1l-2.3,19.3l-4,9.3v12.6l5.6,11.6l-8.1,6L478.4,522l-9.6-0.8l-3.9,4.3l-13.5-1.6
	l-4.1,3.7l-7-1l1.1,5l-7.2,4.2L422.1,548l-5.3-4.9l-20.9,8.6l-16-14.9l-0.5-9.3l2.8-3.5l-2.3-4.9l-3-9.1l7.9-18.4l-4.3-6.7l-9.5,7
	l-10.5,0.2l-4.6,10.7l-9.8,0.5L336.1,495.7"/>
<path class="st1" d="M307.3,495.7c0,0,16.4-10.3,4.4-28.3s-11.8-33.1-11.8-33.1l-10.6-2.4V421l-5.9-7.3l-1-6.3l-16.8,0.7l-4.2-7.3
	l-18.8-12.6l-4.8-8.7l-3.3-10.8L218.9,358l-25.4-3.9l-12.2,3.7l-7.2,0.7l-4.4,7.5l-33-1.9l-1.6,4.1l-33.9-2l-6.3,12.4l-10.4,6.1
	L78,396.9l3.8,9.1l-6.2,12.3l-10.1,7.5l-10.4,19.9l-3,13.5l9.8,22.1l11.6,5.8l8.3,0.8l5.6,7.8l8.8,0.7l7.4-1.6l6.4,5.6l1.9,6
	l7.5,1.8l5.9,5.2l2.1,16.3l2.6,2.8v8.6l-9.5,14l-10.9,5.3l-19.8-0.7l-11.6-4.4l-14.9-1.6l-5.8-3.5l-14,2.3l-24.2-6.7l-13.5,3.5
	l-1.2,12.5v15.3L19,599.9l11.2,12.3l10.9,16l13.5,8.6L69,648.7l13.1,17.2l0.7,12.8L71,691.5l-18.5,9.8l-15.7,4.4l-0.9,11.5l10,4
	l14.7-1.6l2.6-6.8l5.8,2.1l19.1-8.4l17,1.4l12.3-14.9l8.1-1.4l11.6-7.7l0.2-6.5l7.4-6.5l24.9-8.8l2.5,4.3l15.6,0.2l8.4-4.1l4.4,6.2
	h10.7l26.6-12.8l3.4-9.8l-3.4-16l-3.1-14l-0.9-11.8l6.3-5.6l6.7,1.6l4.4-5.3l0.7-6.8l12.8-4.2l8.1-9.1l-4.9-12.1l4.9-5.3l0.1-12.7
	l-11-4.1l-2.6-6.5l7.3-7.2l10.2,3l20.9-24L307.3,495.7"/>
</svg>
